<mxfile host="app.diagrams.net" modified="2021-11-20T04:10:10.126Z" agent="5.0 (Windows NT 10.0; Win64; x64) AppleWebKit/537.36 (KHTML, like Gecko) Chrome/95.0.4638.69 Safari/537.36" etag="D8rJNegtIElQ72DcZLRC" version="15.8.3" type="github">
  <diagram id="q5lzh3VrX62Dl-bmtcdY" name="Page-1">
    <mxGraphModel dx="538" dy="604" grid="1" gridSize="10" guides="1" tooltips="1" connect="1" arrows="1" fold="1" page="1" pageScale="1" pageWidth="827" pageHeight="1169" math="0" shadow="0">
      <root>
        <mxCell id="0" />
        <mxCell id="1" parent="0" />
        <mxCell id="kvS5LR6cUwifq-0sm4ZO-4" value="" style="edgeStyle=orthogonalEdgeStyle;rounded=0;orthogonalLoop=1;jettySize=auto;html=1;fontSize=18;" edge="1" parent="1" source="kvS5LR6cUwifq-0sm4ZO-1" target="kvS5LR6cUwifq-0sm4ZO-3">
          <mxGeometry relative="1" as="geometry" />
        </mxCell>
        <mxCell id="kvS5LR6cUwifq-0sm4ZO-1" value="Mulai" style="strokeWidth=2;html=1;shape=mxgraph.flowchart.start_1;whiteSpace=wrap;" vertex="1" parent="1">
          <mxGeometry x="70" y="90" width="100" height="60" as="geometry" />
        </mxCell>
        <mxCell id="kvS5LR6cUwifq-0sm4ZO-2" value="&lt;font style=&quot;font-size: 18px&quot;&gt;FLOWCHART MEMESAN MAKANAN MELALU GO FOOD&lt;/font&gt;" style="text;html=1;align=center;verticalAlign=middle;resizable=0;points=[];autosize=1;strokeColor=none;fillColor=none;" vertex="1" parent="1">
          <mxGeometry x="169" y="40" width="490" height="20" as="geometry" />
        </mxCell>
        <mxCell id="kvS5LR6cUwifq-0sm4ZO-6" value="" style="edgeStyle=orthogonalEdgeStyle;rounded=0;orthogonalLoop=1;jettySize=auto;html=1;fontSize=18;" edge="1" parent="1" source="kvS5LR6cUwifq-0sm4ZO-3" target="kvS5LR6cUwifq-0sm4ZO-5">
          <mxGeometry relative="1" as="geometry" />
        </mxCell>
        <mxCell id="kvS5LR6cUwifq-0sm4ZO-3" value="Membuka &lt;br&gt;Aplikasi&amp;nbsp;&lt;br&gt;Gojek" style="shape=parallelogram;perimeter=parallelogramPerimeter;whiteSpace=wrap;html=1;fixedSize=1;strokeWidth=2;" vertex="1" parent="1">
          <mxGeometry x="60" y="180" width="120" height="60" as="geometry" />
        </mxCell>
        <mxCell id="kvS5LR6cUwifq-0sm4ZO-8" value="" style="edgeStyle=orthogonalEdgeStyle;rounded=0;orthogonalLoop=1;jettySize=auto;html=1;fontSize=18;" edge="1" parent="1" source="kvS5LR6cUwifq-0sm4ZO-5" target="kvS5LR6cUwifq-0sm4ZO-7">
          <mxGeometry relative="1" as="geometry" />
        </mxCell>
        <mxCell id="kvS5LR6cUwifq-0sm4ZO-5" value="Membuka Menu&lt;br&gt;Go Food" style="shape=parallelogram;perimeter=parallelogramPerimeter;whiteSpace=wrap;html=1;fixedSize=1;strokeWidth=2;" vertex="1" parent="1">
          <mxGeometry x="190" y="180" width="120" height="60" as="geometry" />
        </mxCell>
        <mxCell id="kvS5LR6cUwifq-0sm4ZO-22" value="" style="edgeStyle=orthogonalEdgeStyle;rounded=0;orthogonalLoop=1;jettySize=auto;html=1;fontSize=18;" edge="1" parent="1" source="kvS5LR6cUwifq-0sm4ZO-7" target="kvS5LR6cUwifq-0sm4ZO-9">
          <mxGeometry relative="1" as="geometry" />
        </mxCell>
        <mxCell id="kvS5LR6cUwifq-0sm4ZO-7" value="Masukan Nama&lt;br&gt;Restaurant atau &lt;br&gt;Tempat Makan" style="shape=parallelogram;perimeter=parallelogramPerimeter;whiteSpace=wrap;html=1;fixedSize=1;strokeWidth=2;" vertex="1" parent="1">
          <mxGeometry x="175" y="270" width="150" height="90" as="geometry" />
        </mxCell>
        <mxCell id="kvS5LR6cUwifq-0sm4ZO-12" value="" style="edgeStyle=orthogonalEdgeStyle;rounded=0;orthogonalLoop=1;jettySize=auto;html=1;fontSize=18;" edge="1" parent="1" source="kvS5LR6cUwifq-0sm4ZO-9" target="kvS5LR6cUwifq-0sm4ZO-11">
          <mxGeometry relative="1" as="geometry" />
        </mxCell>
        <mxCell id="kvS5LR6cUwifq-0sm4ZO-9" value="Masukan Menu Makanan&lt;br&gt;Yang Dipilih" style="shape=parallelogram;perimeter=parallelogramPerimeter;whiteSpace=wrap;html=1;fixedSize=1;strokeWidth=2;" vertex="1" parent="1">
          <mxGeometry x="335" y="285" width="120" height="60" as="geometry" />
        </mxCell>
        <mxCell id="kvS5LR6cUwifq-0sm4ZO-14" value="" style="edgeStyle=orthogonalEdgeStyle;rounded=0;orthogonalLoop=1;jettySize=auto;html=1;fontSize=18;" edge="1" parent="1" source="kvS5LR6cUwifq-0sm4ZO-11" target="kvS5LR6cUwifq-0sm4ZO-13">
          <mxGeometry relative="1" as="geometry" />
        </mxCell>
        <mxCell id="kvS5LR6cUwifq-0sm4ZO-11" value="Masukan &lt;br&gt;Deskripsi&lt;br&gt;Makanan" style="shape=parallelogram;perimeter=parallelogramPerimeter;whiteSpace=wrap;html=1;fixedSize=1;strokeWidth=2;" vertex="1" parent="1">
          <mxGeometry x="335" y="380" width="120" height="60" as="geometry" />
        </mxCell>
        <mxCell id="kvS5LR6cUwifq-0sm4ZO-16" value="" style="edgeStyle=orthogonalEdgeStyle;rounded=0;orthogonalLoop=1;jettySize=auto;html=1;fontSize=18;" edge="1" parent="1" source="kvS5LR6cUwifq-0sm4ZO-13" target="kvS5LR6cUwifq-0sm4ZO-15">
          <mxGeometry relative="1" as="geometry" />
        </mxCell>
        <mxCell id="kvS5LR6cUwifq-0sm4ZO-13" value="Masukan Alamat&lt;br&gt;Tujuan" style="shape=parallelogram;perimeter=parallelogramPerimeter;whiteSpace=wrap;html=1;fixedSize=1;strokeWidth=2;" vertex="1" parent="1">
          <mxGeometry x="335" y="470" width="120" height="60" as="geometry" />
        </mxCell>
        <mxCell id="kvS5LR6cUwifq-0sm4ZO-15" value="Pemabayaran" style="rhombus;whiteSpace=wrap;html=1;strokeWidth=2;" vertex="1" parent="1">
          <mxGeometry x="480" y="460" width="110" height="80" as="geometry" />
        </mxCell>
        <mxCell id="kvS5LR6cUwifq-0sm4ZO-21" value="" style="edgeStyle=orthogonalEdgeStyle;rounded=0;orthogonalLoop=1;jettySize=auto;html=1;fontSize=18;" edge="1" parent="1" source="kvS5LR6cUwifq-0sm4ZO-17" target="kvS5LR6cUwifq-0sm4ZO-20">
          <mxGeometry relative="1" as="geometry" />
        </mxCell>
        <mxCell id="kvS5LR6cUwifq-0sm4ZO-17" value="Pesan Makanan" style="rounded=1;whiteSpace=wrap;html=1;absoluteArcSize=1;arcSize=14;strokeWidth=2;fontSize=18;" vertex="1" parent="1">
          <mxGeometry x="560" y="540" width="100" height="100" as="geometry" />
        </mxCell>
        <mxCell id="kvS5LR6cUwifq-0sm4ZO-18" value="" style="endArrow=classic;html=1;rounded=0;fontSize=18;exitX=1;exitY=0.5;exitDx=0;exitDy=0;entryX=0.5;entryY=0;entryDx=0;entryDy=0;" edge="1" parent="1" source="kvS5LR6cUwifq-0sm4ZO-15" target="kvS5LR6cUwifq-0sm4ZO-17">
          <mxGeometry width="50" height="50" relative="1" as="geometry">
            <mxPoint x="440" y="430" as="sourcePoint" />
            <mxPoint x="490" y="380" as="targetPoint" />
            <Array as="points">
              <mxPoint x="610" y="500" />
            </Array>
          </mxGeometry>
        </mxCell>
        <mxCell id="kvS5LR6cUwifq-0sm4ZO-19" value="" style="endArrow=classic;html=1;rounded=0;fontSize=18;exitX=0.5;exitY=1;exitDx=0;exitDy=0;entryX=0;entryY=0.5;entryDx=0;entryDy=0;" edge="1" parent="1" source="kvS5LR6cUwifq-0sm4ZO-15" target="kvS5LR6cUwifq-0sm4ZO-17">
          <mxGeometry width="50" height="50" relative="1" as="geometry">
            <mxPoint x="440" y="430" as="sourcePoint" />
            <mxPoint x="490" y="380" as="targetPoint" />
            <Array as="points">
              <mxPoint x="535" y="590" />
            </Array>
          </mxGeometry>
        </mxCell>
        <mxCell id="kvS5LR6cUwifq-0sm4ZO-20" value="Selesai" style="ellipse;whiteSpace=wrap;html=1;rounded=1;fontSize=18;strokeWidth=2;arcSize=14;" vertex="1" parent="1">
          <mxGeometry x="550" y="670" width="120" height="60" as="geometry" />
        </mxCell>
        <mxCell id="kvS5LR6cUwifq-0sm4ZO-23" value="&lt;font style=&quot;font-size: 12px&quot;&gt;Keterangan:&lt;br&gt;&lt;div style=&quot;text-align: justify&quot;&gt;&lt;span&gt;Flowchart ini menggunakan akun gojek&lt;/span&gt;&lt;/div&gt;&lt;div style=&quot;text-align: justify&quot;&gt;&lt;span&gt;yang sudah terdaftar sehingga tidak memerlukan&lt;/span&gt;&lt;/div&gt;&lt;div style=&quot;text-align: justify&quot;&gt;&lt;font&gt;keterangan nama dan nomor handphone pemesan&lt;/font&gt;&lt;span style=&quot;font-size: 18px&quot;&gt;&amp;nbsp;&lt;/span&gt;&lt;/div&gt;&lt;/font&gt;" style="text;html=1;align=left;verticalAlign=middle;resizable=0;points=[];autosize=1;strokeColor=none;fillColor=none;fontSize=18;" vertex="1" parent="1">
          <mxGeometry x="60" y="620" width="290" height="100" as="geometry" />
        </mxCell>
        <mxCell id="kvS5LR6cUwifq-0sm4ZO-24" value="I.211175_Aldino Ogi_ALPRO_UTS" style="text;html=1;align=center;verticalAlign=middle;resizable=0;points=[];autosize=1;strokeColor=none;fillColor=none;fontSize=12;" vertex="1" parent="1">
          <mxGeometry x="480" y="760" width="200" height="20" as="geometry" />
        </mxCell>
        <mxCell id="kvS5LR6cUwifq-0sm4ZO-25" value="Gopay" style="text;html=1;align=center;verticalAlign=middle;resizable=0;points=[];autosize=1;strokeColor=none;fillColor=none;fontSize=12;" vertex="1" parent="1">
          <mxGeometry x="620" y="500" width="50" height="20" as="geometry" />
        </mxCell>
        <mxCell id="kvS5LR6cUwifq-0sm4ZO-26" value="Cash" style="text;html=1;align=center;verticalAlign=middle;resizable=0;points=[];autosize=1;strokeColor=none;fillColor=none;fontSize=12;" vertex="1" parent="1">
          <mxGeometry x="480" y="560" width="40" height="20" as="geometry" />
        </mxCell>
      </root>
    </mxGraphModel>
  </diagram>
</mxfile>
